<?xml version="1.0" encoding="UTF-8" standalone="no"?>
<svg xmlns="http://www.w3.org/2000/svg" version="1.2" baseProfile="tiny" viewBox="0.00 0.00 150.00 150.00">
<path fill="#000000" d="
  M 150.00 90.34
  L 150.00 96.49
  Q 146.45 113.85 131.09 118.73
  Q 126.99 120.03 119.80 120.02
  Q 75.51 119.97 31.25 120.01
  C 14.67 120.03 3.17 110.86 0.00 94.15
  L 0.00 87.74
  Q 3.01 70.72 18.58 63.89
  Q 19.03 63.69 19.11 63.20
  C 21.44 47.73 37.25 38.93 51.06 47.43
  Q 51.52 47.72 51.80 47.24
  Q 62.83 27.81 83.43 25.98
  C 106.81 23.90 127.00 42.16 126.21 66.10
  Q 126.19 66.61 126.70 66.71
  Q 146.25 70.58 150.00 90.34
  Z
  M 143.98 93.27
  C 144.12 81.62 133.45 71.13 121.50 72.97
  Q 119.84 73.23 120.03 71.56
  Q 122.49 48.76 104.63 36.94
  Q 98.91 33.15 93.26 32.24
  C 74.96 29.31 60.02 39.42 54.52 56.53
  A 0.87 0.87 0.0 0 1 53.02 56.82
  C 42.42 43.93 24.95 50.75 24.87 67.37
  Q 24.87 67.90 24.44 68.20
  C 23.27 69.01 21.21 69.32 20.38 69.69
  C 0.88 78.65 1.19 105.37 21.67 112.73
  Q 25.19 114.00 31.01 114.00
  Q 75.55 113.99 120.10 114.01
  Q 126.79 114.01 130.24 112.75
  C 138.55 109.73 143.88 102.09 143.98 93.27
  Z"
/>
</svg>
